# xmcd
#
# Track frame offsets:
#	150
#	3551
#	15404
#	23305
#	29434
#	38925
#	46731
#	57743
#	68555
#	81689
#	91559
#	101364
#	113828
#	129393
#	142233
#	154207
#	163754
#	175381
#	180122
#	192149
#	204335
#	210944
#	224772
#	235566
#	245934
#	261470
#	277023
#	293268
#	302227
#
# Disc length: 4276 seconds
#
# Revision: 0
# Processed by: cddbd v1.4PL0 Copyright (c) Steve Scherf et al.
# Submitted via: EasyCDDAExtractor 4.6.9.1
#
DISCID=9410b21d
DTITLE=Clubjoint Allstars - Showtime
DYEAR=2002
DGENRE=R&B
TTITLE0=Intro
TTITLE1=Down Ass Bitch
TTITLE2=Platinum In Da Ghetto
TTITLE3=Lets Stay Home Tonight
TTITLE4=Knoc
TTITLE5=I Need A Girl
TTITLE6=I Miss You
TTITLE7=Get Away
TTITLE8=What's Luv?
TTITLE9=Trade It All
TTITLE10=Dirty Girl
TTITLE11=Feels Good
TTITLE12=Feels Good
TTITLE13=If They Only Knew
TTITLE14=Nesian Style
TTITLE15=Your Woman Has Been Sighted
TTITLE16=Think Of Your
TTITLE17=Showtime Intro
TTITLE18=Honey
TTITLE19=How Does It Feel To Ya
TTITLE20=Girlfriend
TTITLE21=Take It To The Head
TTITLE22=Swingin'
TTITLE23=Take You Home With Me
TTITLE24=Get With Me
TTITLE25=How High Pt. 2
TTITLE26=Oops (Oh My)
TTITLE27=I Do!
TTITLE28=Break Ya Neck
EXTD=
EXTT0=
EXTT1=
EXTT2=
EXTT3=
EXTT4=
EXTT5=
EXTT6=
EXTT7=
EXTT8=
EXTT9=
EXTT10=
EXTT11=
EXTT12=
EXTT13=
EXTT14=
EXTT15=
EXTT16=
EXTT17=
EXTT18=
EXTT19=
EXTT20=
EXTT21=
EXTT22=
EXTT23=
EXTT24=
EXTT25=
EXTT26=
EXTT27=
EXTT28=
PLAYORDER=
